<?xml version="1.0" encoding="utf-8"?>
<svg id="_Слой_1" data-name="Слой 1" version="1.1" viewBox="1498.803 330.266 500.158 587.908" xmlns="http://www.w3.org/2000/svg">
  <defs>
    <style>
      .cls-1 {
        stroke-width: .9px;
      }

      .cls-1, .cls-2, .cls-3 {
        fill: currentColor;
      }

      .cls-1, .cls-3 {
        stroke: currentColor;
        stroke-miterlimit: 10;
      }

      .cls-2 {
        stroke-width: 0px;
      }

      .cls-3 {
        stroke-width: .9px;
      }

      .cls-4 {
        display: none;
      }
    </style>
  </defs>
  <path class="cls-2" d="M 1960.196 797.371 C 1953.096 784.371 1953.896 768.371 1962.296 756.271 C 1962.296 756.171 1962.296 755.971 1962.296 755.971 L 1916.396 721.271 C 1916.296 721.271 1916.096 721.271 1916.096 721.271 C 1888.696 757.371 1846.096 781.471 1797.896 783.971 C 1701.196 789.071 1621.896 706.171 1631.196 609.871 C 1638.896 529.271 1706.796 466.271 1789.396 466.271 C 1871.996 466.271 1887.796 491.371 1916.796 530.071 C 1916.796 530.171 1916.996 530.171 1917.096 530.071 L 1962.796 496.071 C 1962.896 496.071 1962.896 495.871 1962.796 495.771 C 1953.996 483.571 1952.996 467.271 1960.196 453.971 L 1975.496 425.771 C 1977.796 421.471 1976.596 415.971 1972.896 413.271 L 1935.196 385.871 C 1931.496 383.171 1925.796 383.771 1922.496 387.271 L 1900.496 410.471 C 1889.896 421.671 1873.696 425.771 1859.096 420.771 C 1844.496 415.771 1855.696 419.671 1853.996 419.171 C 1839.296 414.571 1828.596 401.771 1826.596 386.471 L 1822.396 354.771 C 1821.796 349.971 1817.496 346.171 1812.896 346.171 L 1766.296 346.171 C 1761.696 346.171 1757.496 349.971 1756.796 354.771 L 1752.596 386.471 C 1750.596 401.771 1739.896 414.571 1725.196 419.171 C 1723.496 419.671 1721.796 420.271 1720.096 420.771 C 1705.496 425.671 1689.296 421.671 1678.696 410.471 L 1656.696 387.271 C 1653.296 383.771 1647.696 383.171 1643.996 385.871 L 1606.296 413.271 C 1602.596 415.971 1601.396 421.471 1603.696 425.771 L 1618.996 453.871 C 1626.396 467.471 1625.296 484.071 1615.996 496.471 C 1614.896 497.871 1613.896 499.271 1612.896 500.771 C 1603.996 513.371 1588.496 519.471 1573.396 516.671 L 1541.996 510.871 C 1537.196 509.971 1532.296 512.871 1530.896 517.171 L 1516.496 561.471 C 1515.096 565.871 1517.396 571.071 1521.796 573.171 L 1550.696 586.971 C 1564.596 593.571 1573.496 607.671 1573.296 623.171 C 1573.296 624.071 1573.296 624.971 1573.296 625.771 C 1573.296 626.571 1573.296 627.571 1573.296 628.371 C 1573.496 643.771 1564.596 657.871 1550.696 664.571 L 1521.796 678.371 C 1517.396 680.471 1515.096 685.671 1516.496 690.071 L 1530.896 734.371 C 1532.296 738.771 1537.196 741.571 1541.996 740.671 L 1573.396 734.871 C 1588.596 732.071 1603.996 738.271 1612.896 750.771 C 1613.896 752.171 1614.996 753.671 1615.996 755.071 C 1625.196 767.471 1626.396 784.071 1618.996 797.671 L 1603.696 825.771 C 1601.396 830.071 1602.596 835.571 1606.296 838.271 L 1643.996 865.671 C 1647.696 868.371 1653.396 867.771 1656.696 864.271 L 1678.696 841.071 C 1689.296 829.871 1705.496 825.771 1720.096 830.771 C 1734.696 835.771 1723.496 831.871 1725.196 832.371 C 1739.896 836.971 1750.596 849.771 1752.596 865.071 L 1756.796 896.771 C 1757.396 901.571 1761.696 905.371 1766.296 905.371 L 1812.896 905.371 C 1817.496 905.371 1821.696 901.571 1822.396 896.771 L 1826.596 865.071 C 1828.596 849.771 1839.296 836.971 1853.996 832.371 C 1855.696 831.871 1857.396 831.271 1859.096 830.771 C 1873.696 825.871 1889.896 829.871 1900.496 841.071 L 1922.496 864.271 C 1925.896 867.771 1931.496 868.371 1935.196 865.671 L 1972.896 838.271 C 1976.596 835.571 1977.796 830.071 1975.496 825.771 L 1960.196 797.571 L 1960.196 797.371 Z"/>
  <ellipse class="cls-1" cx="871.7" cy="821.2" rx="17.6" ry="28.6" transform="matrix(0.601815, -0.798635, 0.798635, 0.601815, 758.69604, 940.571239)"/>
  <ellipse class="cls-3" cx="871.9" cy="595.1" rx="28.3" ry="17.6" transform="matrix(0.774944, -0.632029, 0.632029, 0.774944, 887.496036, 601.671209)"/>
</svg>